<svg width="17" height="20" viewBox="0 0 17 20" fill="none" xmlns="http://www.w3.org/2000/svg">
<path d="M5.92107 0.960541C5.05737 0.960541 4.22904 1.30364 3.61832 1.91437C3.00759 2.5251 2.66449 3.35342 2.66449 4.21712V10.0066C2.66454 10.4434 2.75244 10.8757 2.92298 11.2778C3.09351 11.6799 3.34319 12.0435 3.65715 12.3472C3.97111 12.6508 4.34295 12.8882 4.75053 13.0452C5.1581 13.2022 5.5931 13.2756 6.02962 13.261C6.2047 12.4082 6.58202 11.6099 7.12983 10.9332C7.67765 10.2566 8.37994 9.72139 9.17765 9.37265V4.21712C9.17765 3.35342 8.83454 2.5251 8.22382 1.91437C7.61309 1.30364 6.78477 0.960541 5.92107 0.960541ZM5.92107 14.7105H5.93265C5.98041 15.4263 6.16567 16.1044 6.46383 16.7173V17.7862C6.46383 17.9302 6.40665 18.0682 6.30486 18.17C6.20307 18.2718 6.06502 18.329 5.92107 18.329C5.77712 18.329 5.63906 18.2718 5.53728 18.17C5.43549 18.0682 5.3783 17.9302 5.3783 17.7862V15.7707C3.94312 15.6356 2.60998 14.9699 1.63964 13.9039C0.669291 12.8378 0.13155 11.4481 0.131592 10.0066V9.46383C0.131592 9.31988 0.188776 9.18183 0.290563 9.08004C0.392351 8.97825 0.530405 8.92107 0.674355 8.92107C0.818305 8.92107 0.956359 8.97825 1.05815 9.08004C1.15993 9.18183 1.21712 9.31988 1.21712 9.46383V10.0066C1.21712 11.2542 1.71271 12.4506 2.59487 13.3328C3.47703 14.215 4.6735 14.7105 5.92107 14.7105ZM16.0526 14.3487C16.0526 13.1011 15.5571 11.9047 14.6749 11.0225C13.7927 10.1403 12.5963 9.64475 11.3487 9.64475C10.1011 9.64475 8.90467 10.1403 8.02251 11.0225C7.14034 11.9047 6.64475 13.1011 6.64475 14.3487C6.64475 15.5963 7.14034 16.7927 8.02251 17.6749C8.90467 18.5571 10.1011 19.0527 11.3487 19.0527C12.5963 19.0527 13.7927 18.5571 14.6749 17.6749C15.5571 16.7927 16.0526 15.5963 16.0526 14.3487ZM10.2697 12.1777C10.3464 12.179 10.4206 12.2047 10.4818 12.251C10.5429 12.2973 10.5877 12.3618 10.6098 12.4353L11.3871 15.0261L12.0955 13.1358C12.1204 13.0698 12.1639 13.0125 12.2209 12.9709C12.2778 12.9294 12.3457 12.9053 12.4161 12.9018C12.4865 12.8983 12.5564 12.9154 12.6172 12.951C12.6781 12.9867 12.7271 13.0393 12.7584 13.1025L13.3823 14.361H14.2434C14.3394 14.361 14.4314 14.3991 14.4993 14.467C14.5672 14.5348 14.6053 14.6269 14.6053 14.7228C14.6053 14.8188 14.5672 14.9109 14.4993 14.9787C14.4314 15.0466 14.3394 15.0847 14.2434 15.0847H13.1579C13.0905 15.0847 13.0244 15.0659 12.9671 15.0303C12.9098 14.9948 12.8636 14.9439 12.8337 14.8835L12.4805 14.1707L11.6874 16.2853C11.6608 16.3562 11.6126 16.4169 11.5496 16.459C11.4867 16.5011 11.4121 16.5223 11.3364 16.5197C11.2607 16.5172 11.1878 16.491 11.1278 16.4447C11.0678 16.3985 11.0238 16.3347 11.0021 16.2621L10.2422 13.7307L9.86804 14.8379C9.84385 14.9095 9.79782 14.9718 9.73642 15.0159C9.67503 15.0601 9.60135 15.0839 9.52574 15.084H8.45396C8.358 15.084 8.26596 15.0458 8.1981 14.978C8.13024 14.9101 8.09212 14.8181 8.09212 14.7221C8.09212 14.6262 8.13024 14.5341 8.1981 14.4663C8.26596 14.3984 8.358 14.3603 8.45396 14.3603H9.26594L9.92015 12.4237C9.94473 12.3509 9.99185 12.2878 10.0547 12.2435C10.1175 12.1993 10.1928 12.1762 10.2697 12.1777Z" fill="#7F5283"/>
</svg>
