<svg width="15" height="15" viewBox="0 0 15 15" fill="none" xmlns="http://www.w3.org/2000/svg">
<path d="M7.5 1.52344C6.31795 1.52344 5.16244 1.87396 4.1796 2.53067C3.19676 3.18738 2.43073 4.12079 1.97838 5.21287C1.52603 6.30494 1.40767 7.50663 1.63828 8.66597C1.86889 9.82531 2.4381 10.8902 3.27393 11.7261C4.10977 12.5619 5.17469 13.1311 6.33403 13.3617C7.49337 13.5923 8.69506 13.474 9.78713 13.0216C10.8792 12.5693 11.8126 11.8032 12.4693 10.8204C13.126 9.83756 13.4766 8.68205 13.4766 7.5C13.4735 5.91587 12.8428 4.39751 11.7226 3.27735C10.6025 2.1572 9.08413 1.52653 7.5 1.52344ZM7.5 12.7734C6.45702 12.7734 5.43745 12.4642 4.57024 11.8847C3.70303 11.3053 3.02712 10.4817 2.62798 9.51806C2.22885 8.55446 2.12442 7.49415 2.32789 6.4712C2.53137 5.44826 3.03362 4.50862 3.77112 3.77112C4.50862 3.03361 5.44826 2.53137 6.47121 2.32789C7.49415 2.12441 8.55447 2.22885 9.51806 2.62798C10.4817 3.02711 11.3053 3.70302 11.8847 4.57024C12.4642 5.43745 12.7734 6.45701 12.7734 7.5C12.7719 8.89813 12.2158 10.2385 11.2272 11.2272C10.2385 12.2158 8.89813 12.7719 7.5 12.7734ZM8.32032 10.3125C8.32032 10.4057 8.28328 10.4952 8.21735 10.5611C8.15141 10.627 8.06199 10.6641 7.96875 10.6641H7.5C7.40676 10.6641 7.31734 10.627 7.25141 10.5611C7.18548 10.4952 7.14844 10.4057 7.14844 10.3125V7.38281H7.03125C6.93801 7.38281 6.84859 7.34577 6.78266 7.27984C6.71673 7.21391 6.67969 7.12449 6.67969 7.03125C6.67969 6.93801 6.71673 6.84859 6.78266 6.78266C6.84859 6.71673 6.93801 6.67969 7.03125 6.67969H7.5C7.59324 6.67969 7.68266 6.71673 7.7486 6.78266C7.81453 6.84859 7.85157 6.93801 7.85157 7.03125V9.96094H7.96875C8.06199 9.96094 8.15141 9.99798 8.21735 10.0639C8.28328 10.1298 8.32032 10.2193 8.32032 10.3125ZM6.79688 4.92188C6.79688 4.80599 6.83124 4.6927 6.89563 4.59635C6.96001 4.49999 7.05152 4.42489 7.15859 4.38054C7.26565 4.33619 7.38347 4.32459 7.49713 4.3472C7.61079 4.3698 7.71519 4.42561 7.79714 4.50755C7.87908 4.5895 7.93489 4.6939 7.95749 4.80756C7.9801 4.92122 7.9685 5.03904 7.92415 5.1461C7.8798 5.25317 7.8047 5.34468 7.70834 5.40906C7.61199 5.47345 7.4987 5.50781 7.38282 5.50781C7.22742 5.50781 7.07838 5.44608 6.96849 5.3362C6.85861 5.22631 6.79688 5.07728 6.79688 4.92188Z" fill="#7F5283"/>
</svg>
