<svg width="32" height="32" viewBox="0 0 32 32" fill="none" xmlns="http://www.w3.org/2000/svg">
<circle cx="16" cy="16" r="16" fill="#EDC432"/>
<path d="M16 17.3333C15.7639 17.3333 15.5662 17.2533 15.4067 17.0933C15.2467 16.9339 15.1667 16.7361 15.1667 16.5V8.02083L14.4167 8.77083C14.2639 8.92361 14.0731 9 13.8442 9C13.6148 9 13.4167 8.91667 13.25 8.75C13.0973 8.58333 13.0209 8.38528 13.0209 8.15583C13.0209 7.92694 13.0973 7.73611 13.25 7.58333L15.4167 5.41667C15.4862 5.34722 15.5731 5.29167 15.6775 5.25C15.7814 5.20833 15.8889 5.1875 16 5.1875C16.1112 5.1875 16.2189 5.20833 16.3234 5.25C16.4273 5.29167 16.5139 5.34722 16.5834 5.41667L18.75 7.58333C18.9167 7.75 19 7.95139 19 8.1875C19 8.42361 18.9167 8.61806 18.75 8.77083C18.5834 8.92361 18.3856 9 18.1567 9C17.9273 9 17.7362 8.92361 17.5834 8.77083L16.8334 8.02083V16.5C16.8334 16.7361 16.7537 16.9339 16.5942 17.0933C16.4342 17.2533 16.2362 17.3333 16 17.3333ZM11 23.1667C10.5417 23.1667 10.1495 23.0036 9.82337 22.6775C9.49671 22.3508 9.33337 21.9583 9.33337 21.5V12.3333C9.33337 11.875 9.49671 11.4825 9.82337 11.1558C10.1495 10.8297 10.5417 10.6667 11 10.6667H12.6667C12.9028 10.6667 13.1009 10.7464 13.2609 10.9058C13.4203 11.0658 13.5 11.2639 13.5 11.5C13.5 11.7361 13.4203 11.9339 13.2609 12.0933C13.1009 12.2533 12.9028 12.3333 12.6667 12.3333H11V21.5H21V12.3333H19.3334C19.0973 12.3333 18.8995 12.2533 18.74 12.0933C18.58 11.9339 18.5 11.7361 18.5 11.5C18.5 11.2639 18.58 11.0658 18.74 10.9058C18.8995 10.7464 19.0973 10.6667 19.3334 10.6667H21C21.4584 10.6667 21.8509 10.8297 22.1775 11.1558C22.5037 11.4825 22.6667 11.875 22.6667 12.3333V21.5C22.6667 21.9583 22.5037 22.3508 22.1775 22.6775C21.8509 23.0036 21.4584 23.1667 21 23.1667H11Z" fill="white"/>
</svg>
