<svg width="18" height="18" viewBox="0 0 18 18" fill="none" xmlns="http://www.w3.org/2000/svg">
<path d="M1.71429 18C1.24286 18 0.839429 17.8343 0.504 17.5028C0.168 17.1707 0 16.7718 0 16.3059V2.75294C0 2.28706 0.168 1.88809 0.504 1.55605C0.839429 1.22456 1.24286 1.05882 1.71429 1.05882H9.42857L7.71429 2.75294H1.71429V16.3059H11.1429V13.7647H12.8571V16.3059C12.8571 16.7718 12.6894 17.1707 12.354 17.5028C12.018 17.8343 11.6143 18 11.1429 18H1.71429ZM3.42857 14.6118V12.9176H9.42857V14.6118H3.42857ZM3.42857 12.0706V10.3765H7.71429V12.0706H3.42857ZM11.1429 12.0706L7.71429 8.68235H5.14286V4.44706H7.71429L11.1429 1.05882V12.0706ZM12.8571 9.48706V3.64235C13.3714 3.93882 13.7857 4.34118 14.1 4.84941C14.4143 5.35765 14.5714 5.92941 14.5714 6.56471C14.5714 7.2 14.4143 7.77176 14.1 8.28C13.7857 8.78823 13.3714 9.19059 12.8571 9.48706ZM12.8571 13.1294V11.3506C13.8571 10.9976 14.6786 10.3869 15.3214 9.5184C15.9643 8.65045 16.2857 7.66588 16.2857 6.56471C16.2857 5.46353 15.9643 4.47868 15.3214 3.61016C14.6786 2.74221 13.8571 2.13176 12.8571 1.77882V0C14.3429 0.381176 15.5714 1.17515 16.5429 2.38193C17.5143 3.58927 18 4.98353 18 6.56471C18 8.14588 17.5143 9.54014 16.5429 10.7475C15.5714 11.9543 14.3429 12.7482 12.8571 13.1294Z" fill="#7F5283"/>
</svg>
