<svg width="18" height="18" viewBox="0 0 18 18" fill="none" xmlns="http://www.w3.org/2000/svg">
<path d="M6.65627 2.17498L12.975 8.47498C13.05 8.54998 13.103 8.63123 13.134 8.71873C13.1655 8.80623 13.1813 8.89998 13.1813 8.99998C13.1813 9.09998 13.1655 9.19373 13.134 9.28123C13.103 9.36873 13.05 9.44998 12.975 9.52498L6.65627 15.8437C6.48127 16.0187 6.26252 16.1062 6.00002 16.1062C5.73752 16.1062 5.51252 16.0125 5.32502 15.825C5.13752 15.6375 5.04377 15.4187 5.04377 15.1687C5.04377 14.9187 5.13752 14.7 5.32502 14.5125L10.8375 8.99998L5.32502 3.48748C5.15002 3.31248 5.06252 3.09698 5.06252 2.84098C5.06252 2.58448 5.15627 2.36248 5.34377 2.17498C5.53127 1.98748 5.75002 1.89373 6.00002 1.89373C6.25002 1.89373 6.46877 1.98748 6.65627 2.17498Z" fill="#232946"/>
</svg>
