<svg width="156" height="187" viewBox="0 0 156 187" fill="none" xmlns="http://www.w3.org/2000/svg">
<path d="M0 0H155.23V187H0V0Z" fill="#FFE27D"/>
<path d="M85.29 25C86.0679 25.4919 86.6641 25.9984 87.2844 26.4732C89.8605 28.4449 90.8245 31.1644 90.9189 34.2849C90.9443 35.126 90.9227 35.9685 90.9227 37.0165C93.4608 37.0165 95.9256 37.0165 98.3905 37.0165C102.153 37.0165 105.92 37.1273 109.677 36.984C113.122 36.8526 116.57 40.0167 116.098 43.421C115.825 45.3859 116.048 47.4197 116.048 49.4224C116.048 52.0294 114.338 54.2467 111.679 54.9946C111.679 58.606 111.544 62.2501 111.723 65.8788C111.857 68.59 113.75 70.5273 115.562 72.2873C118.304 74.9504 120.565 77.9331 121.986 81.4466C122.632 83.0453 122.921 84.8937 122.927 86.6303C122.99 105.99 123.071 125.351 122.885 144.709C122.845 148.939 120.925 152.699 117.976 155.968C115.874 158.299 113.451 159.961 110.684 161.239C109.65 161.717 108.535 162.018 107.565 162.522C87.7593 162.644 67.8455 162.644 47.761 162.644C47.2142 162.282 46.8908 161.695 46.4538 161.592C41.6382 160.463 38.439 157.355 35.8515 153.338C33.6834 149.971 32.9882 146.335 33.0001 142.398C33.0558 124.013 33.0023 105.628 33.0393 87.2428C33.0497 82.0876 34.9953 77.7449 38.6573 74.0478C40.5112 72.176 41.9607 69.9007 43.5596 67.7826C43.7868 67.4815 43.9299 67.0375 43.9325 66.6584C43.9592 62.7785 43.9489 58.8984 43.9489 55.0422C41.1948 54.1849 39.5799 52.0158 39.5794 49.2501C39.579 47.2478 39.7287 45.2316 39.5443 43.2464C39.2678 40.2712 42.2403 36.9272 45.7605 36.9874C51.88 37.0922 58.0026 37.0165 64.0007 37.0165C64.3798 34.7265 64.3687 32.3694 65.2226 30.3844C65.9354 28.7272 67.6631 27.5073 68.9371 26.0898C69.1885 25.81 69.4202 25.5125 69.5498 25.1116C74.6655 25 79.8924 25 85.29 25ZM49.4105 66.9113C49.1487 67.9262 49.0301 69.0072 48.5981 69.9436C47.3566 72.6343 45.4218 74.8111 43.2875 76.85C39.779 80.2013 38.1491 84.4193 38.1379 89.2143C38.0988 106.022 38.1122 122.829 38.1387 139.637C38.1414 141.364 38.2136 143.117 38.5134 144.812C39.9155 152.74 45.4953 157.311 52.7871 157.447C69.5888 157.76 86.4006 157.594 103.207 157.482C105.191 157.469 107.324 156.896 109.123 156.032C115.158 153.13 117.769 147.867 117.822 141.46C117.961 124.472 117.886 107.481 117.843 90.492C117.838 88.7831 117.487 87.0726 117.264 85.3672C116.772 81.6075 114.595 78.7783 111.929 76.3536C107.831 72.6267 105.926 68.1918 106.539 62.6161C106.792 60.3071 106.581 57.947 106.581 55.7135C87.3646 55.7135 68.4058 55.7135 49.411 55.7135C49.411 59.4171 49.411 62.9949 49.4105 66.9113ZM44.6772 45.616C44.6772 46.1012 44.6771 46.5864 44.6773 47.0716C44.6783 49.981 45.1864 50.4896 48.092 50.4896C67.257 50.4897 86.4219 50.4798 105.587 50.4957C111.358 50.5005 110.983 50.8691 110.953 45.1788C110.938 42.4288 110.647 42.1164 107.883 42.116C87.8686 42.1131 67.8546 42.1195 47.8406 42.108C45.4092 42.1066 44.586 42.551 44.6772 45.616ZM77.9958 37.0165C80.4561 37.0165 82.9164 37.0165 85.4607 37.0165C85.4607 35.8587 85.4608 34.8986 85.4606 33.9385C85.4603 31.2119 84.3294 30.0981 81.5613 30.098C78.8963 30.0978 76.2296 30.045 73.5677 30.1354C72.9072 30.1579 72.1708 30.5247 71.6267 30.9397C69.5758 32.5037 69.7196 34.7147 69.8896 37.0165C72.5577 37.0165 75.0947 37.0165 77.9958 37.0165Z" fill="#FFE27D"/>
<path d="M49.4106 66.7421C49.4109 62.995 49.4109 59.4172 49.4109 55.7136C68.4057 55.7136 87.3645 55.7136 106.581 55.7136C106.581 57.9471 106.792 60.3072 106.538 62.6161C105.926 68.1919 107.831 72.6268 111.929 76.3537C114.595 78.7784 116.772 81.6075 117.264 85.3673C117.487 87.0727 117.838 88.7832 117.843 90.4921C117.886 107.482 117.961 124.472 117.822 141.46C117.769 147.867 115.158 153.13 109.122 156.032C107.324 156.896 105.191 157.469 103.207 157.482C86.4004 157.594 69.5886 157.76 52.787 157.447C45.4952 157.311 39.9154 152.74 38.5132 144.813C38.2134 143.117 38.1413 141.364 38.1386 139.637C38.112 122.829 38.0987 106.022 38.1378 89.2144C38.1489 84.4194 39.7789 80.2014 43.2873 76.85C45.4217 74.8112 47.3565 72.6343 48.598 69.9437C49.03 69.0073 49.1486 67.9263 49.4106 66.7421ZM43.5847 90.7507C43.5849 91.5394 43.401 92.3897 43.6383 93.0991C43.8645 93.7756 44.4182 94.6344 45.0226 94.8396C47.0882 95.5409 48.5403 94.3331 48.7003 92.129C48.8112 90.6031 48.8745 89.0206 49.3356 87.5842C50.3521 84.4179 52.4381 81.9103 54.8051 79.6234C56.6859 77.8062 58.3863 75.8304 59.2268 73.3009C60.6089 69.1418 59.8702 64.8325 59.8614 60.5952C59.8598 59.776 58.6052 58.6348 57.6728 58.2268C56.5868 57.7517 55.4751 58.4296 55.013 59.6551C54.7679 60.3052 54.5618 61.0067 54.5311 61.6936C54.4607 63.2679 54.3141 64.8767 54.5451 66.4196C55.255 71.1605 52.6956 74.3954 49.6201 77.3306C45.8559 80.9231 43.8177 85.2288 43.5847 90.7507ZM48.6793 101.187C47.992 99.8263 46.8018 98.8661 45.4041 99.3887C44.5113 99.7226 43.4756 101.023 43.4075 101.956C43.2174 104.563 43.3192 107.226 43.6458 109.825C43.9288 112.077 45.9691 111.36 47.2674 111.182C47.8294 111.105 48.5609 109.771 48.6183 108.965C48.7948 106.491 48.6825 103.996 48.6793 101.187Z" fill="#A164A6"/>
<path d="M44.6838 46.4585C44.5921 42.6911 45.4195 42.1127 47.8633 42.1145C67.9799 42.1294 88.0965 42.1212 108.213 42.1249C110.991 42.1255 111.284 42.532 111.299 46.1109C111.33 53.5163 111.706 53.0366 105.906 53.0304C86.6424 53.0097 67.3792 53.0226 48.1161 53.0225C45.1955 53.0225 44.6848 52.3606 44.6838 48.5742C44.6836 47.9428 44.6838 47.3113 44.6838 46.4585Z" fill="#CA9E85"/>
<path d="M77.8813 36.984C75.2044 36.984 72.5711 37.0704 69.8506 36.984C69.6804 34.7482 69.3942 32.2271 71.4472 30.7079C71.9918 30.3048 72.9888 30.0978 73.65 30.076C76.3146 29.9881 78.9267 30.0758 81.5944 30.0759C84.3653 30.0761 85.4797 31.2594 85.4801 33.9079C85.4803 34.8404 85.4801 35.8594 85.4801 36.984C82.976 37.1567 80.4718 36.984 77.8813 36.984Z" fill="#CA9E85"/>
<path d="M43.5846 90.5798C43.8176 85.2285 45.8558 80.9228 49.62 77.3303C52.6956 74.3951 55.2549 71.1602 54.545 66.4193C54.314 64.8764 54.4606 63.2677 54.531 61.6933C54.5617 61.0064 54.7678 60.305 55.013 59.6549C55.475 58.4294 56.5867 57.7515 57.6727 58.2266C58.6051 58.6345 59.8597 59.7757 59.8614 60.595C59.8701 64.8323 60.6088 69.1415 59.2267 73.3007C58.3862 75.8301 56.6858 77.8059 54.805 79.6231C52.438 81.91 50.352 84.4176 49.3356 87.584C48.8745 89.0203 48.8111 90.6028 48.7003 92.1287C48.5402 94.3328 47.0882 95.5407 45.0225 94.8394C44.4181 94.6342 43.8645 93.7754 43.6382 93.0989C43.4009 92.3894 43.5848 91.5391 43.5846 90.5798Z" fill="white"/>
<path d="M48.681 101.348C48.6826 103.996 48.7949 106.491 48.6184 108.965C48.561 109.771 47.8295 111.106 47.2675 111.182C45.9692 111.36 43.9289 112.077 43.6459 109.825C43.3193 107.227 43.2174 104.563 43.4076 101.956C43.4757 101.023 44.5114 99.7227 45.4042 99.3888C46.8019 98.8661 47.9921 99.8263 48.681 101.348Z" fill="white"/>
</svg>
