<svg width="18" height="12" viewBox="0 0 18 12" fill="none" xmlns="http://www.w3.org/2000/svg">
<path d="M7.33341 8.33333L11.6584 5.83333L7.33341 3.33333V8.33333ZM16.9667 1.80833C17.0751 2.2 17.1501 2.725 17.2001 3.39167C17.2584 4.05833 17.2834 4.63333 17.2834 5.13333L17.3334 5.83333C17.3334 7.65833 17.2001 9 16.9667 9.85833C16.7584 10.6083 16.2751 11.0917 15.5251 11.3C15.1334 11.4083 14.4167 11.4833 13.3167 11.5333C12.2334 11.5917 11.2417 11.6167 10.3251 11.6167L9.00008 11.6667C5.50841 11.6667 3.33341 11.5333 2.47508 11.3C1.72508 11.0917 1.24175 10.6083 1.03341 9.85833C0.925081 9.46667 0.850081 8.94167 0.800081 8.275C0.741748 7.60833 0.716748 7.03333 0.716748 6.53333L0.666748 5.83333C0.666748 4.00833 0.800081 2.66667 1.03341 1.80833C1.24175 1.05833 1.72508 0.575 2.47508 0.366667C2.86675 0.258333 3.58341 0.183333 4.68341 0.133333C5.76675 0.0749999 6.75841 0.05 7.67508 0.05L9.00008 0C12.4917 0 14.6667 0.133333 15.5251 0.366667C16.2751 0.575 16.7584 1.05833 16.9667 1.80833Z" fill="#7F5283"/>
</svg>
