<svg width="350" height="215" viewBox="0 0 350 215" fill="none" xmlns="http://www.w3.org/2000/svg">
<path d="M0 0H350V215H0V0Z" fill="#FFE27D"/>
<path d="M183.1 32C183.964 32.5466 184.627 33.1093 185.316 33.6369C188.178 35.8277 189.249 38.8494 189.354 42.3166C189.383 43.2511 189.359 44.1872 189.359 45.3517C192.179 45.3517 194.917 45.3517 197.656 45.3517C201.837 45.3517 206.022 45.4748 210.197 45.3155C214.024 45.1695 217.856 48.6852 217.331 52.4678C217.028 54.651 217.276 56.9107 217.276 59.136C217.276 62.0326 215.375 64.4963 212.421 65.3274C212.421 69.3399 212.271 73.389 212.47 77.4208C212.619 80.4333 214.722 82.5859 216.736 84.5414C219.783 87.5005 222.295 90.8146 223.873 94.7185C224.591 96.4948 224.912 98.5485 224.919 100.478C224.989 121.989 225.079 143.501 224.873 165.01C224.828 169.71 222.695 173.888 219.418 177.52C217.082 180.11 214.39 181.957 211.315 183.377C210.167 183.907 208.928 184.242 207.85 184.802C185.844 184.938 163.717 184.938 141.401 184.938C140.794 184.536 140.434 183.883 139.949 183.769C134.598 182.514 131.043 179.062 128.168 174.597C125.759 170.857 124.987 166.817 125 162.442C125.062 142.015 125.003 121.586 125.044 101.159C125.055 95.4306 127.217 90.6055 131.286 86.4975C133.346 84.4178 134.956 81.8897 136.733 79.5362C136.985 79.2017 137.144 78.7084 137.147 78.2871C137.177 73.9761 137.165 69.6648 137.165 65.3803C134.105 64.4277 132.311 62.0175 132.31 58.9446C132.31 56.7198 132.476 54.4795 132.271 52.2738C131.964 48.968 135.267 45.2524 139.178 45.3194C145.978 45.4357 152.781 45.3517 159.445 45.3517C159.866 42.8072 159.854 40.1883 160.803 37.9827C161.595 36.1413 163.515 34.7858 164.93 33.2108C165.209 32.9 165.467 32.5694 165.611 32.124C171.295 32 177.103 32 183.1 32ZM143.234 78.5681C142.943 79.6958 142.811 80.8969 142.331 81.9373C140.952 84.9269 138.802 87.3457 136.431 89.6111C132.532 93.3348 130.721 98.0214 130.709 103.349C130.665 122.024 130.68 140.699 130.71 159.374C130.713 161.293 130.793 163.241 131.126 165.125C132.684 173.934 138.884 179.012 146.986 179.163C165.654 179.511 184.334 179.327 203.008 179.202C205.213 179.188 207.582 178.551 209.581 177.591C216.287 174.367 219.188 168.518 219.246 161.4C219.401 142.524 219.318 123.646 219.27 104.769C219.265 102.87 218.875 100.97 218.627 99.0747C218.08 94.8972 215.661 91.7537 212.699 89.0596C208.146 84.9186 206.029 79.9909 206.71 73.7956C206.991 71.2301 206.756 68.6078 206.756 66.1262C185.405 66.1262 164.34 66.1262 143.234 66.1262C143.234 70.2413 143.234 74.2166 143.234 78.5681ZM137.975 54.9067C137.975 55.4458 137.975 55.9849 137.975 56.524C137.976 59.7567 138.54 60.3218 141.769 60.3218C163.063 60.3218 184.358 60.3108 205.652 60.3285C212.065 60.3338 211.648 60.7434 211.614 54.4209C211.598 51.3653 211.274 51.0183 208.203 51.0178C185.965 51.0146 163.727 51.0216 141.49 51.0089C138.788 51.0074 137.873 51.5012 137.975 54.9067ZM174.995 45.3517C177.729 45.3517 180.463 45.3517 183.29 45.3517C183.29 44.0653 183.29 42.9985 183.29 41.9317C183.289 38.9021 182.033 37.6645 178.957 37.6644C175.996 37.6643 173.033 37.6055 170.075 37.706C169.341 37.731 168.523 38.1386 167.919 38.5996C165.64 40.3375 165.8 42.7942 165.988 45.3517C168.953 45.3517 171.772 45.3517 174.995 45.3517Z" fill="#FFE27D"/>
<path d="M143.234 78.38C143.234 74.2166 143.234 70.2413 143.234 66.1262C164.34 66.1262 185.405 66.1262 206.756 66.1262C206.756 68.6079 206.991 71.2301 206.709 73.7957C206.029 79.9909 208.145 84.9186 212.698 89.0596C215.661 91.7538 218.079 94.8972 218.626 99.0748C218.875 100.97 219.265 102.87 219.269 104.769C219.318 123.646 219.401 142.524 219.246 161.4C219.188 168.518 216.287 174.367 209.58 177.591C207.582 178.551 205.213 179.188 203.008 179.202C184.334 179.327 165.654 179.511 146.986 179.163C138.884 179.012 132.684 173.934 131.126 165.125C130.793 163.241 130.713 161.293 130.709 159.374C130.68 140.699 130.665 122.024 130.709 103.349C130.721 98.0215 132.532 93.3349 136.43 89.6111C138.802 87.3458 140.952 84.927 142.331 81.9374C142.811 80.897 142.943 79.6959 143.234 78.38ZM136.761 105.056C136.761 105.933 136.557 106.877 136.82 107.666C137.072 108.417 137.687 109.372 138.358 109.6C140.654 110.379 142.267 109.037 142.445 106.588C142.568 104.892 142.638 103.134 143.151 101.538C144.28 98.0199 146.598 95.2336 149.228 92.6926C151.318 90.6735 153.207 88.4782 154.141 85.6677C155.677 81.0464 154.856 76.2583 154.846 71.5502C154.844 70.64 153.45 69.3719 152.414 68.9187C151.208 68.3908 149.972 69.144 149.459 70.5057C149.187 71.228 148.958 72.0074 148.923 72.7706C148.845 74.5199 148.682 76.3074 148.939 78.0217C149.728 83.2894 146.884 86.8837 143.467 90.1451C139.284 94.1367 137.02 98.9209 136.761 105.056ZM142.421 116.653C141.658 115.14 140.335 114.073 138.782 114.654C137.79 115.025 136.639 116.47 136.564 117.507C136.353 120.403 136.466 123.363 136.829 126.25C137.143 128.752 139.41 127.955 140.853 127.758C141.477 127.673 142.29 126.19 142.354 125.295C142.55 122.546 142.425 119.773 142.421 116.653Z" fill="#A164A6"/>
<path d="M137.982 55.8428C137.88 51.6567 138.8 51.0141 141.515 51.0161C163.867 51.0327 186.219 51.0235 208.57 51.0277C211.657 51.0283 211.982 51.48 211.999 55.4565C212.033 63.6848 212.452 63.1518 206.006 63.1449C184.603 63.1219 163.199 63.1362 141.796 63.1362C138.551 63.1362 137.983 62.4007 137.982 58.1936C137.982 57.492 137.982 56.7904 137.982 55.8428Z" fill="#CA9E85"/>
<path d="M174.868 45.3158C171.894 45.3158 168.968 45.4117 165.945 45.3158C165.756 42.8315 165.438 40.0303 167.719 38.3422C168.324 37.8944 169.432 37.6643 170.167 37.6401C173.127 37.5425 176.03 37.64 178.994 37.6401C182.073 37.6402 183.311 38.955 183.311 41.8978C183.311 42.934 183.311 44.0662 183.311 45.3158C180.529 45.5077 177.746 45.3158 174.868 45.3158Z" fill="#CA9E85"/>
<path d="M136.761 104.867C137.02 98.9208 139.284 94.1366 143.467 90.145C146.884 86.8836 149.728 83.2893 148.939 78.0216C148.682 76.3073 148.845 74.5198 148.924 72.7705C148.958 72.0073 149.187 71.2279 149.459 70.5056C149.972 69.1439 151.208 68.3907 152.414 68.9186C153.45 69.3718 154.844 70.6399 154.846 71.5501C154.856 76.2582 155.677 81.0463 154.141 85.6676C153.207 88.4781 151.318 90.6734 149.228 92.6925C146.598 95.2335 144.28 98.0198 143.151 101.538C142.638 103.134 142.568 104.892 142.445 106.588C142.267 109.037 140.654 110.379 138.359 109.599C137.687 109.371 137.072 108.417 136.82 107.666C136.557 106.877 136.761 105.933 136.761 104.867Z" fill="white"/>
<path d="M142.423 116.831C142.425 119.773 142.55 122.545 142.354 125.295C142.29 126.19 141.477 127.673 140.853 127.758C139.41 127.955 137.143 128.752 136.829 126.25C136.466 123.363 136.353 120.403 136.564 117.507C136.64 116.47 137.79 115.025 138.782 114.654C140.335 114.073 141.658 115.14 142.423 116.831Z" fill="white"/>
</svg>
