<svg width="71" height="71" viewBox="0 0 71 71" fill="none" xmlns="http://www.w3.org/2000/svg">
<path d="M0 -0.000244141H71V70.9998H0V-0.000244141Z" fill="#FFE27D"/>
<path d="M38.43 12C38.6893 12.164 38.888 12.3328 39.0948 12.4911C39.9535 13.1483 40.2748 14.0548 40.3063 15.095C40.3148 15.3753 40.3076 15.6562 40.3076 16.0055C41.1536 16.0055 41.9752 16.0055 42.7968 16.0055C44.0511 16.0055 45.3067 16.0424 46.5592 15.9947C47.7072 15.9509 48.8567 17.0056 48.6993 18.1403C48.6084 18.7953 48.6828 19.4732 48.6828 20.1408C48.6827 21.0098 48.1125 21.7489 47.2262 21.9982C47.2262 23.202 47.1813 24.4167 47.241 25.6262C47.2856 26.53 47.9167 27.1758 48.5207 27.7624C49.4348 28.6501 50.1884 29.6444 50.662 30.8155C50.8774 31.3484 50.9737 31.9646 50.9756 32.5434C50.9968 38.9967 51.0236 45.4503 50.9618 51.903C50.9483 53.3129 50.3084 54.5663 49.3254 55.656C48.6246 56.4329 47.8169 56.987 46.8946 57.4131C46.5501 57.5722 46.1785 57.6726 45.8551 57.8405C39.2531 57.8814 32.6152 57.8814 25.9203 57.8814C25.7381 57.7607 25.6303 57.5649 25.4846 57.5308C23.8794 57.1543 22.813 56.1185 21.9505 54.7792C21.2278 53.6571 20.9961 52.445 21 51.1326C21.0186 45.0043 21.0008 38.8759 21.0131 32.7476C21.0166 31.0292 21.6651 29.5816 22.8858 28.3493C23.5037 27.7253 23.9869 26.9669 24.5199 26.2609C24.5956 26.1605 24.6433 26.0125 24.6442 25.8861C24.6531 24.5928 24.6496 23.2995 24.6496 22.0141C23.7316 21.7283 23.1933 21.0053 23.1931 20.0834C23.193 19.4159 23.2429 18.7439 23.1814 18.0821C23.0893 17.0904 24.0801 15.9757 25.2535 15.9958C27.2933 16.0307 29.3342 16.0055 31.3336 16.0055C31.4599 15.2422 31.4562 14.4565 31.7409 13.7948C31.9785 13.2424 32.5544 12.8358 32.979 12.3633C33.0628 12.27 33.1401 12.1708 33.1833 12.0372C34.8885 12 36.6308 12 38.43 12ZM26.4702 25.9704C26.3829 26.3087 26.3434 26.6691 26.1994 26.9812C25.7855 27.8781 25.1406 28.6037 24.4292 29.2833C23.2597 30.4004 22.7164 31.8064 22.7126 33.4048C22.6996 39.0072 22.7041 44.6098 22.7129 50.2123C22.7138 50.7879 22.7379 51.3724 22.8378 51.9375C23.3052 54.5801 25.1651 56.1036 27.5957 56.1489C33.1963 56.2534 38.8002 56.1981 44.4024 56.1607C45.0638 56.1563 45.7746 55.9654 46.3742 55.6772C48.3861 54.7101 49.2565 52.9555 49.2739 50.82C49.3202 45.1573 49.2953 39.4938 49.2809 33.8307C49.2794 33.261 49.1624 32.6909 49.088 32.1224C48.9239 30.8691 48.1982 29.9261 47.3096 29.1179C45.9437 27.8756 45.3087 26.3973 45.5129 24.5387C45.5974 23.769 45.5269 22.9823 45.5269 22.2378C39.1215 22.2378 32.8019 22.2378 26.4703 22.2378C26.4703 23.4724 26.4703 24.665 26.4702 25.9704ZM24.8924 18.872C24.8924 19.0337 24.8924 19.1955 24.8924 19.3572C24.8928 20.327 25.0621 20.4965 26.0307 20.4965C32.419 20.4966 38.8073 20.4932 45.1956 20.4986C47.1194 20.5002 46.9944 20.623 46.9842 18.7263C46.9793 17.8096 46.8822 17.7055 45.9609 17.7053C39.2895 17.7044 32.6182 17.7065 25.9469 17.7027C25.1364 17.7022 24.862 17.8503 24.8924 18.872ZM35.9986 16.0055C36.8187 16.0055 37.6388 16.0055 38.4869 16.0055C38.4869 15.6196 38.4869 15.2995 38.4869 14.9795C38.4868 14.0706 38.1098 13.6994 37.1871 13.6993C36.2988 13.6993 35.4099 13.6817 34.5226 13.7118C34.3024 13.7193 34.0569 13.8416 33.8756 13.9799C33.1919 14.5012 33.2399 15.2382 33.2965 16.0055C34.1859 16.0055 35.0316 16.0055 35.9986 16.0055Z" fill="#FFE27D"/>
<path d="M26.4701 25.9142C26.4702 24.6652 26.4702 23.4726 26.4702 22.238C32.8018 22.238 39.1214 22.238 45.5268 22.238C45.5268 22.9825 45.5973 23.7692 45.5127 24.5389C45.3086 26.3974 45.9435 27.8758 47.3094 29.1181C48.1981 29.9263 48.9238 30.8693 49.0879 32.1226C49.1623 32.6911 49.2793 33.2612 49.2808 33.8309C49.2952 39.494 49.3201 45.1575 49.2738 50.8202C49.2564 52.9557 48.386 54.7103 46.3741 55.6774C45.7745 55.9656 45.0637 56.1565 44.4023 56.1609C38.8001 56.1983 33.1961 56.2536 27.5956 56.1491C25.165 56.1038 23.305 54.5803 22.8377 51.9377C22.7377 51.3726 22.7137 50.7881 22.7128 50.2125C22.7039 44.61 22.6995 39.0074 22.7125 33.405C22.7162 31.8066 23.2595 30.4006 24.429 29.2835C25.1405 28.6039 25.7854 27.8783 26.1992 26.9814C26.3433 26.6693 26.3828 26.3089 26.4701 25.9142ZM24.5281 33.9171C24.5282 34.18 24.4669 34.4634 24.546 34.6999C24.6214 34.9254 24.806 35.2116 25.0074 35.28C25.696 35.5138 26.18 35.1112 26.2334 34.3765C26.2703 33.8679 26.2914 33.3404 26.4451 32.8616C26.7839 31.8061 27.4793 30.9702 28.2683 30.208C28.8952 29.6022 29.462 28.9436 29.7422 28.1005C30.2029 26.7141 29.9567 25.2777 29.9537 23.8652C29.9532 23.5922 29.535 23.2117 29.2242 23.0758C28.8622 22.9174 28.4916 23.1434 28.3376 23.5519C28.2559 23.7686 28.1872 24.0024 28.1769 24.2314C28.1535 24.7561 28.1046 25.2924 28.1816 25.8067C28.4182 27.387 27.5651 28.4653 26.54 29.4437C25.2852 30.6412 24.6058 32.0764 24.5281 33.9171ZM26.2264 37.396C25.9972 36.9423 25.6005 36.6222 25.1346 36.7964C24.837 36.9077 24.4918 37.3412 24.4691 37.6522C24.4057 38.5211 24.4396 39.409 24.5485 40.2751C24.6429 41.0257 25.323 40.7867 25.7557 40.7276C25.943 40.702 26.1869 40.2572 26.206 39.9886C26.2648 39.1638 26.2274 38.3322 26.2264 37.396Z" fill="#A164A6"/>
<path d="M24.8946 19.1528C24.864 17.897 25.1398 17.7042 25.9544 17.7048C32.66 17.7098 39.3655 17.7071 46.071 17.7083C46.9971 17.7085 47.0947 17.844 47.0996 19.037C47.1099 21.5054 47.2355 21.3455 45.3019 21.3435C38.8808 21.3366 32.4597 21.3409 26.0387 21.3408C25.0652 21.3408 24.8949 21.1202 24.8946 19.8581C24.8945 19.6476 24.8946 19.4371 24.8946 19.1528Z" fill="#CA9E85"/>
<path d="M35.9603 15.9947C35.068 15.9947 34.1903 16.0235 33.2834 15.9947C33.2267 15.2494 33.1313 14.409 33.8156 13.9026C33.9972 13.7683 34.3295 13.6993 34.5499 13.692C35.4381 13.6627 36.3088 13.6919 37.198 13.692C38.1217 13.692 38.4932 14.0865 38.4933 14.9693C38.4933 15.2801 38.4933 15.6198 38.4933 15.9947C37.6586 16.0522 36.8239 15.9947 35.9603 15.9947Z" fill="#CA9E85"/>
<path d="M24.5282 33.8599C24.6059 32.0762 25.2853 30.6409 26.54 29.4434C27.5652 28.465 28.4183 27.3867 28.1817 25.8064C28.1047 25.2921 28.1535 24.7559 28.177 24.2311C28.1872 24.0021 28.2559 23.7683 28.3377 23.5516C28.4917 23.1431 28.8622 22.9172 29.2242 23.0755C29.535 23.2115 29.9532 23.5919 29.9538 23.865C29.9567 25.2774 30.2029 26.7138 29.7422 28.1002C29.4621 28.9434 28.8953 29.602 28.2683 30.2077C27.4793 30.97 26.784 31.8059 26.4452 32.8613C26.2915 33.3401 26.2704 33.8676 26.2334 34.3762C26.1801 35.1109 25.6961 35.5136 25.0075 35.2798C24.806 35.2114 24.6215 34.9251 24.5461 34.6996C24.467 34.4631 24.5283 34.1797 24.5282 33.8599Z" fill="white"/>
<path d="M26.2271 37.4493C26.2276 38.3319 26.265 39.1636 26.2062 39.9884C26.1871 40.257 25.9432 40.7018 25.7559 40.7273C25.3232 40.7865 24.6431 41.0255 24.5487 40.2749C24.4398 39.4088 24.4059 38.5209 24.4693 37.6519C24.492 37.341 24.8372 36.9075 25.1348 36.7962C25.6007 36.622 25.9974 36.942 26.2271 37.4493Z" fill="white"/>
</svg>
