<svg width="20" height="20" viewBox="0 0 20 20" fill="none" xmlns="http://www.w3.org/2000/svg">
<mask id="path-1-outside-1_692_160" maskUnits="userSpaceOnUse" x="0" y="0.507263" width="20" height="20" fill="black">
<rect fill="white" y="0.507263" width="20" height="20"/>
<path d="M1.62031 1.16467C1.43594 1.26652 1.2195 1.46097 1.14735 1.59986C0.842735 2.12764 0.914881 2.3406 2.29368 4.97023L3.5843 7.42393L3.54421 8.44245C3.50413 9.38689 3.56826 10.0813 3.80875 11.3776L3.85685 11.6369H2.85482C1.57221 11.6369 1.55618 11.6462 1.62031 12.711C1.68444 13.785 1.94898 14.8776 2.39789 15.9424C2.87085 17.0813 3.37587 17.8499 4.23361 18.785L4.89896 19.5073H9.41211H13.9253L14.3982 19.0999C15.6969 17.998 16.6909 16.0813 17.0596 13.9795C17.2841 12.7387 17.2841 11.8684 17.0757 11.7295C16.9795 11.6739 16.2019 11.6369 15.1117 11.6369H13.3V11.0536C13.3 10.7387 13.324 10.3221 13.3481 10.1276C13.3962 9.7943 13.4122 9.78504 13.7409 9.78504C14.0455 9.78504 14.27 9.62763 16.3863 7.91467C18.222 6.43319 18.735 5.96097 18.9114 5.64615C19.3443 4.85912 19.2881 3.97023 18.735 2.72023C18.1979 1.53504 17.4685 0.979486 16.6348 1.12764C15.7369 1.2943 11.1677 2.67393 11.0314 2.82208C10.7588 3.09986 10.5665 3.67393 10.5184 4.31282C10.4703 5.02578 10.6707 6.09986 11.0234 7.01652L11.2398 7.57208L10.9192 8.33134C10.5103 9.28504 10.358 9.81282 10.1737 10.8036L10.0374 11.5906L9.51632 11.6184L8.98725 11.6462L8.95519 11.0536C8.90709 10.1276 8.4662 9.19245 7.65655 8.25726C6.9912 7.498 6.22164 6.84986 5.63646 6.57208C5.412 6.46097 5.25168 6.30356 5.12342 6.0443C5.01921 5.83134 4.43402 4.67393 3.80875 3.46097C2.8949 1.69245 2.63036 1.23875 2.42194 1.12764C2.10129 0.95171 2.02914 0.95171 1.62031 1.16467ZM3.34381 4.02578C3.96908 5.23875 4.48212 6.26652 4.48212 6.32208C4.48212 6.36838 4.3779 6.47949 4.24964 6.57208C4.01717 6.72949 4.00916 6.72949 3.85685 6.47949C3.50413 5.88689 1.67643 2.27578 1.67643 2.16467C1.67643 1.98875 1.84477 1.82208 2.03716 1.82208C2.16542 1.82208 2.44599 2.2943 3.34381 4.02578ZM17.5166 2.12764C18.238 2.68319 18.7751 4.53504 18.4064 5.19245C18.3342 5.32208 18.0777 5.5906 17.8452 5.78504C17.0115 6.498 14.6467 8.40541 14.6307 8.37764C14.6227 8.35912 14.5666 8.08134 14.5105 7.748C14.4543 7.41467 14.3181 6.84986 14.2139 6.498C14.1016 6.13689 14.0054 5.7943 13.9974 5.72023C13.9653 5.44245 15.5125 4.65541 17.1077 4.14615C17.9735 3.85912 18.222 3.69245 18.1338 3.43319C18.0456 3.16467 17.8292 3.12764 17.3402 3.26652C16.4263 3.53504 15.3361 3.97949 14.5105 4.42393C14.0535 4.67393 13.6527 4.87764 13.6287 4.87764C13.5966 4.87764 13.5084 4.73875 13.4283 4.57208C13.3401 4.41467 13.0996 4.00727 12.8832 3.69245C12.6667 3.36838 12.4984 3.0906 12.5144 3.07208C12.5304 3.05356 13.4924 2.76652 14.6628 2.43319C16.8913 1.80356 17.0757 1.78504 17.5166 2.12764ZM12.0575 3.77578C12.2579 3.98875 12.5625 4.42393 12.7389 4.748L13.0595 5.33134L12.3942 6.07208C11.6326 6.93319 11.6406 6.93319 11.3601 5.84986C11.0474 4.69245 11.1677 3.39615 11.5765 3.39615C11.6487 3.39615 11.8571 3.56282 12.0575 3.77578ZM13.8291 7.65541C14.0054 8.63689 13.9573 9.0443 13.6447 9.0443C13.5004 9.0443 13.5164 8.72023 13.6607 8.58134C13.8291 8.41467 13.813 8.05356 13.6206 7.93319C13.0996 7.60912 12.6667 8.87764 12.6587 10.7295V11.6369H11.6887H10.7188L10.7749 11.1924C10.9833 9.56282 11.7368 7.88689 12.811 6.64615L13.3321 6.0443L13.5245 6.5443C13.6287 6.82208 13.7649 7.32208 13.8291 7.65541ZM5.99719 9.18319C6.51825 10.0628 7.12748 11.3313 7.12748 11.5443C7.12748 11.5999 6.91104 11.6369 6.59841 11.6369H6.07735L5.77273 10.8684C5.412 9.98875 4.91499 8.33134 4.84285 7.7943L4.79475 7.42393L5.12342 7.8406C5.29977 8.07208 5.69257 8.67393 5.99719 9.18319ZM6.4942 8.0906C7.52829 8.98875 8.21769 10.1554 8.30587 11.1184L8.35397 11.6369H8.11348C7.89704 11.6369 7.85696 11.5906 7.69664 11.1091C7.48821 10.4702 6.78278 9.0906 6.23768 8.25726C5.68455 7.39615 5.70059 7.38689 6.4942 8.0906ZM4.40195 8.87764C4.49815 9.248 4.73864 10.0073 4.93103 10.5536C5.12342 11.0999 5.28374 11.5721 5.28374 11.5906C5.28374 11.6184 5.12342 11.6369 4.93103 11.6369H4.58633L4.45807 11.0999C4.25766 10.2665 4.16147 9.52578 4.16147 8.8406C4.16147 8.498 4.1775 8.21097 4.19353 8.21097C4.20956 8.21097 4.30576 8.51652 4.40195 8.87764ZM16.5386 13.0443C16.3542 15.0258 15.4243 17.0258 14.1016 18.2943L13.6126 18.7665H9.41211H5.2116L4.73062 18.3036C3.50413 17.1276 2.49408 15.0443 2.34979 13.4147C2.32574 13.1276 2.29368 12.7943 2.26963 12.6739L2.23756 12.4702H9.41211H16.5947L16.5386 13.0443Z"/>
</mask>
<path d="M1.62031 1.16467C1.43594 1.26652 1.2195 1.46097 1.14735 1.59986C0.842735 2.12764 0.914881 2.3406 2.29368 4.97023L3.5843 7.42393L3.54421 8.44245C3.50413 9.38689 3.56826 10.0813 3.80875 11.3776L3.85685 11.6369H2.85482C1.57221 11.6369 1.55618 11.6462 1.62031 12.711C1.68444 13.785 1.94898 14.8776 2.39789 15.9424C2.87085 17.0813 3.37587 17.8499 4.23361 18.785L4.89896 19.5073H9.41211H13.9253L14.3982 19.0999C15.6969 17.998 16.6909 16.0813 17.0596 13.9795C17.2841 12.7387 17.2841 11.8684 17.0757 11.7295C16.9795 11.6739 16.2019 11.6369 15.1117 11.6369H13.3V11.0536C13.3 10.7387 13.324 10.3221 13.3481 10.1276C13.3962 9.7943 13.4122 9.78504 13.7409 9.78504C14.0455 9.78504 14.27 9.62763 16.3863 7.91467C18.222 6.43319 18.735 5.96097 18.9114 5.64615C19.3443 4.85912 19.2881 3.97023 18.735 2.72023C18.1979 1.53504 17.4685 0.979486 16.6348 1.12764C15.7369 1.2943 11.1677 2.67393 11.0314 2.82208C10.7588 3.09986 10.5665 3.67393 10.5184 4.31282C10.4703 5.02578 10.6707 6.09986 11.0234 7.01652L11.2398 7.57208L10.9192 8.33134C10.5103 9.28504 10.358 9.81282 10.1737 10.8036L10.0374 11.5906L9.51632 11.6184L8.98725 11.6462L8.95519 11.0536C8.90709 10.1276 8.4662 9.19245 7.65655 8.25726C6.9912 7.498 6.22164 6.84986 5.63646 6.57208C5.412 6.46097 5.25168 6.30356 5.12342 6.0443C5.01921 5.83134 4.43402 4.67393 3.80875 3.46097C2.8949 1.69245 2.63036 1.23875 2.42194 1.12764C2.10129 0.95171 2.02914 0.95171 1.62031 1.16467ZM3.34381 4.02578C3.96908 5.23875 4.48212 6.26652 4.48212 6.32208C4.48212 6.36838 4.3779 6.47949 4.24964 6.57208C4.01717 6.72949 4.00916 6.72949 3.85685 6.47949C3.50413 5.88689 1.67643 2.27578 1.67643 2.16467C1.67643 1.98875 1.84477 1.82208 2.03716 1.82208C2.16542 1.82208 2.44599 2.2943 3.34381 4.02578ZM17.5166 2.12764C18.238 2.68319 18.7751 4.53504 18.4064 5.19245C18.3342 5.32208 18.0777 5.5906 17.8452 5.78504C17.0115 6.498 14.6467 8.40541 14.6307 8.37764C14.6227 8.35912 14.5666 8.08134 14.5105 7.748C14.4543 7.41467 14.3181 6.84986 14.2139 6.498C14.1016 6.13689 14.0054 5.7943 13.9974 5.72023C13.9653 5.44245 15.5125 4.65541 17.1077 4.14615C17.9735 3.85912 18.222 3.69245 18.1338 3.43319C18.0456 3.16467 17.8292 3.12764 17.3402 3.26652C16.4263 3.53504 15.3361 3.97949 14.5105 4.42393C14.0535 4.67393 13.6527 4.87764 13.6287 4.87764C13.5966 4.87764 13.5084 4.73875 13.4283 4.57208C13.3401 4.41467 13.0996 4.00727 12.8832 3.69245C12.6667 3.36838 12.4984 3.0906 12.5144 3.07208C12.5304 3.05356 13.4924 2.76652 14.6628 2.43319C16.8913 1.80356 17.0757 1.78504 17.5166 2.12764ZM12.0575 3.77578C12.2579 3.98875 12.5625 4.42393 12.7389 4.748L13.0595 5.33134L12.3942 6.07208C11.6326 6.93319 11.6406 6.93319 11.3601 5.84986C11.0474 4.69245 11.1677 3.39615 11.5765 3.39615C11.6487 3.39615 11.8571 3.56282 12.0575 3.77578ZM13.8291 7.65541C14.0054 8.63689 13.9573 9.0443 13.6447 9.0443C13.5004 9.0443 13.5164 8.72023 13.6607 8.58134C13.8291 8.41467 13.813 8.05356 13.6206 7.93319C13.0996 7.60912 12.6667 8.87764 12.6587 10.7295V11.6369H11.6887H10.7188L10.7749 11.1924C10.9833 9.56282 11.7368 7.88689 12.811 6.64615L13.3321 6.0443L13.5245 6.5443C13.6287 6.82208 13.7649 7.32208 13.8291 7.65541ZM5.99719 9.18319C6.51825 10.0628 7.12748 11.3313 7.12748 11.5443C7.12748 11.5999 6.91104 11.6369 6.59841 11.6369H6.07735L5.77273 10.8684C5.412 9.98875 4.91499 8.33134 4.84285 7.7943L4.79475 7.42393L5.12342 7.8406C5.29977 8.07208 5.69257 8.67393 5.99719 9.18319ZM6.4942 8.0906C7.52829 8.98875 8.21769 10.1554 8.30587 11.1184L8.35397 11.6369H8.11348C7.89704 11.6369 7.85696 11.5906 7.69664 11.1091C7.48821 10.4702 6.78278 9.0906 6.23768 8.25726C5.68455 7.39615 5.70059 7.38689 6.4942 8.0906ZM4.40195 8.87764C4.49815 9.248 4.73864 10.0073 4.93103 10.5536C5.12342 11.0999 5.28374 11.5721 5.28374 11.5906C5.28374 11.6184 5.12342 11.6369 4.93103 11.6369H4.58633L4.45807 11.0999C4.25766 10.2665 4.16147 9.52578 4.16147 8.8406C4.16147 8.498 4.1775 8.21097 4.19353 8.21097C4.20956 8.21097 4.30576 8.51652 4.40195 8.87764ZM16.5386 13.0443C16.3542 15.0258 15.4243 17.0258 14.1016 18.2943L13.6126 18.7665H9.41211H5.2116L4.73062 18.3036C3.50413 17.1276 2.49408 15.0443 2.34979 13.4147C2.32574 13.1276 2.29368 12.7943 2.26963 12.6739L2.23756 12.4702H9.41211H16.5947L16.5386 13.0443Z" fill="#7F5283"/>
<path d="M1.62031 1.16467C1.43594 1.26652 1.2195 1.46097 1.14735 1.59986C0.842735 2.12764 0.914881 2.3406 2.29368 4.97023L3.5843 7.42393L3.54421 8.44245C3.50413 9.38689 3.56826 10.0813 3.80875 11.3776L3.85685 11.6369H2.85482C1.57221 11.6369 1.55618 11.6462 1.62031 12.711C1.68444 13.785 1.94898 14.8776 2.39789 15.9424C2.87085 17.0813 3.37587 17.8499 4.23361 18.785L4.89896 19.5073H9.41211H13.9253L14.3982 19.0999C15.6969 17.998 16.6909 16.0813 17.0596 13.9795C17.2841 12.7387 17.2841 11.8684 17.0757 11.7295C16.9795 11.6739 16.2019 11.6369 15.1117 11.6369H13.3V11.0536C13.3 10.7387 13.324 10.3221 13.3481 10.1276C13.3962 9.7943 13.4122 9.78504 13.7409 9.78504C14.0455 9.78504 14.27 9.62763 16.3863 7.91467C18.222 6.43319 18.735 5.96097 18.9114 5.64615C19.3443 4.85912 19.2881 3.97023 18.735 2.72023C18.1979 1.53504 17.4685 0.979486 16.6348 1.12764C15.7369 1.2943 11.1677 2.67393 11.0314 2.82208C10.7588 3.09986 10.5665 3.67393 10.5184 4.31282C10.4703 5.02578 10.6707 6.09986 11.0234 7.01652L11.2398 7.57208L10.9192 8.33134C10.5103 9.28504 10.358 9.81282 10.1737 10.8036L10.0374 11.5906L9.51632 11.6184L8.98725 11.6462L8.95519 11.0536C8.90709 10.1276 8.4662 9.19245 7.65655 8.25726C6.9912 7.498 6.22164 6.84986 5.63646 6.57208C5.412 6.46097 5.25168 6.30356 5.12342 6.0443C5.01921 5.83134 4.43402 4.67393 3.80875 3.46097C2.8949 1.69245 2.63036 1.23875 2.42194 1.12764C2.10129 0.95171 2.02914 0.95171 1.62031 1.16467ZM3.34381 4.02578C3.96908 5.23875 4.48212 6.26652 4.48212 6.32208C4.48212 6.36838 4.3779 6.47949 4.24964 6.57208C4.01717 6.72949 4.00916 6.72949 3.85685 6.47949C3.50413 5.88689 1.67643 2.27578 1.67643 2.16467C1.67643 1.98875 1.84477 1.82208 2.03716 1.82208C2.16542 1.82208 2.44599 2.2943 3.34381 4.02578ZM17.5166 2.12764C18.238 2.68319 18.7751 4.53504 18.4064 5.19245C18.3342 5.32208 18.0777 5.5906 17.8452 5.78504C17.0115 6.498 14.6467 8.40541 14.6307 8.37764C14.6227 8.35912 14.5666 8.08134 14.5105 7.748C14.4543 7.41467 14.3181 6.84986 14.2139 6.498C14.1016 6.13689 14.0054 5.7943 13.9974 5.72023C13.9653 5.44245 15.5125 4.65541 17.1077 4.14615C17.9735 3.85912 18.222 3.69245 18.1338 3.43319C18.0456 3.16467 17.8292 3.12764 17.3402 3.26652C16.4263 3.53504 15.3361 3.97949 14.5105 4.42393C14.0535 4.67393 13.6527 4.87764 13.6287 4.87764C13.5966 4.87764 13.5084 4.73875 13.4283 4.57208C13.3401 4.41467 13.0996 4.00727 12.8832 3.69245C12.6667 3.36838 12.4984 3.0906 12.5144 3.07208C12.5304 3.05356 13.4924 2.76652 14.6628 2.43319C16.8913 1.80356 17.0757 1.78504 17.5166 2.12764ZM12.0575 3.77578C12.2579 3.98875 12.5625 4.42393 12.7389 4.748L13.0595 5.33134L12.3942 6.07208C11.6326 6.93319 11.6406 6.93319 11.3601 5.84986C11.0474 4.69245 11.1677 3.39615 11.5765 3.39615C11.6487 3.39615 11.8571 3.56282 12.0575 3.77578ZM13.8291 7.65541C14.0054 8.63689 13.9573 9.0443 13.6447 9.0443C13.5004 9.0443 13.5164 8.72023 13.6607 8.58134C13.8291 8.41467 13.813 8.05356 13.6206 7.93319C13.0996 7.60912 12.6667 8.87764 12.6587 10.7295V11.6369H11.6887H10.7188L10.7749 11.1924C10.9833 9.56282 11.7368 7.88689 12.811 6.64615L13.3321 6.0443L13.5245 6.5443C13.6287 6.82208 13.7649 7.32208 13.8291 7.65541ZM5.99719 9.18319C6.51825 10.0628 7.12748 11.3313 7.12748 11.5443C7.12748 11.5999 6.91104 11.6369 6.59841 11.6369H6.07735L5.77273 10.8684C5.412 9.98875 4.91499 8.33134 4.84285 7.7943L4.79475 7.42393L5.12342 7.8406C5.29977 8.07208 5.69257 8.67393 5.99719 9.18319ZM6.4942 8.0906C7.52829 8.98875 8.21769 10.1554 8.30587 11.1184L8.35397 11.6369H8.11348C7.89704 11.6369 7.85696 11.5906 7.69664 11.1091C7.48821 10.4702 6.78278 9.0906 6.23768 8.25726C5.68455 7.39615 5.70059 7.38689 6.4942 8.0906ZM4.40195 8.87764C4.49815 9.248 4.73864 10.0073 4.93103 10.5536C5.12342 11.0999 5.28374 11.5721 5.28374 11.5906C5.28374 11.6184 5.12342 11.6369 4.93103 11.6369H4.58633L4.45807 11.0999C4.25766 10.2665 4.16147 9.52578 4.16147 8.8406C4.16147 8.498 4.1775 8.21097 4.19353 8.21097C4.20956 8.21097 4.30576 8.51652 4.40195 8.87764ZM16.5386 13.0443C16.3542 15.0258 15.4243 17.0258 14.1016 18.2943L13.6126 18.7665H9.41211H5.2116L4.73062 18.3036C3.50413 17.1276 2.49408 15.0443 2.34979 13.4147C2.32574 13.1276 2.29368 12.7943 2.26963 12.6739L2.23756 12.4702H9.41211H16.5947L16.5386 13.0443Z" stroke="#7F5283" stroke-width="0.2" mask="url(#path-1-outside-1_692_160)"/>
</svg>
