<svg width="24" height="24" viewBox="0 0 24 24" fill="none" xmlns="http://www.w3.org/2000/svg">
<path fill-rule="evenodd" clip-rule="evenodd" d="M10.8458 2C9.52515 2.00012 8.22367 2.32436 7.04995 2.94569C5.87623 3.56702 4.8643 4.46742 4.09859 5.57175C3.33289 6.67609 2.8356 7.95235 2.64823 9.29404C2.46086 10.6357 2.58884 12.004 3.02148 13.2846C3.45412 14.5652 4.17889 15.7211 5.13531 16.6557C6.09173 17.5904 7.25208 18.2768 8.51953 18.6576C9.78699 19.0384 11.1248 19.1026 12.4214 18.8449C13.7179 18.5872 14.9356 18.015 15.9729 17.176L19.5312 20.828C19.715 21.0102 19.9611 21.111 20.2166 21.1087C20.4721 21.1064 20.7165 21.0012 20.8971 20.8158C21.0778 20.6304 21.1802 20.3796 21.1825 20.1174C21.1847 19.8552 21.0865 19.6026 20.909 19.414L17.3506 15.762C18.3133 14.5086 18.9127 13.0024 19.0802 11.4157C19.2477 9.82905 18.9766 8.22602 18.2979 6.79009C17.6192 5.35417 16.5603 4.14336 15.2424 3.29623C13.9245 2.44911 12.4008 1.99989 10.8458 2ZM4.51247 10.5C4.51247 8.77609 5.17973 7.12279 6.36746 5.90381C7.55519 4.68482 9.16609 4 10.8458 4C12.5255 4 14.1364 4.68482 15.3241 5.90381C16.5119 7.12279 17.1791 8.77609 17.1791 10.5C17.1791 12.2239 16.5119 13.8772 15.3241 15.0962C14.1364 16.3152 12.5255 17 10.8458 17C9.16609 17 7.55519 16.3152 6.36746 15.0962C5.17973 13.8772 4.51247 12.2239 4.51247 10.5Z" fill="#ADB3CE"/>
</svg>
